name Walk5.mot
datacolumns 19
datarows 20
range 3.72000000 3.81500000
endheader

                time	   L_ground_force_vx	   L_ground_force_vy	   L_ground_force_vz	   L_ground_force_px	   L_ground_force_py	   L_ground_force_pz	   R_ground_force_vx	   R_ground_force_vy	   R_ground_force_vz	   R_ground_force_px	   R_ground_force_py	   R_ground_force_pz	   L_ground_torque_x	   L_ground_torque_y	   L_ground_torque_z	   R_ground_torque_x	   R_ground_torque_y	   R_ground_torque_z	
          3.72000000	          0.00000000	          0.00000000	         -0.00000000	          0.00000000	          0.00000000	          0.00000000	         28.66120265	        215.49853547	          4.38868790	          0.22824873	          0.00000000	          0.12284950	          0.00000000	         -0.00000000	          0.00000000	          0.00000000	         -8.36964089	          0.00000000	
          3.72500000	          0.00000000	          0.00000000	         -0.00000000	          0.00000000	          0.00000000	          0.00000000	         21.64584177	        175.10053680	          4.47362925	          0.22704653	          0.00000000	          0.11811268	          0.00000000	         -0.00000000	          0.00000000	          0.00000000	         -7.27118928	          0.00000000	
          3.73000000	          0.00000000	          0.00000000	          0.00000000	          0.00000000	          0.00000000	          0.00000000	         15.11431381	        138.73118498	          4.29404654	          0.22343309	          0.00000000	          0.11223117	          0.00000000	         -0.00000000	          0.00000000	          0.00000000	         -6.16216259	          0.00000000	
          3.73500000	          0.00000000	          0.00000000	          0.00000000	          0.00000000	          0.00000000	          0.00000000	          9.27668973	        106.82319894	          3.94081418	          0.21669555	          0.00000000	          0.10507958	          0.00000000	         -0.00000000	          0.00000000	          0.00000000	         -5.07761366	          0.00000000	
          3.74000000	          0.00000000	          0.00000000	          0.00000000	         -0.00000000	          0.00000000	         -0.00000000	          4.32426932	         79.54356526	          3.48563109	          0.20616276	          0.00000000	          0.09658638	          0.00000000	         -0.00000000	          0.00000000	          0.00000000	         -4.05235135	          0.00000000	
          3.74500000	          0.00000000	          0.00000000	          0.00000000	         -0.00000000	          0.00000000	         -0.00000000	          0.40010521	         56.80214175	          2.97848571	          0.19135625	          0.00000000	          0.08675251	          0.00000000	          0.00000000	          0.00000000	          0.00000000	         -3.11632262	          0.00000000	
          3.75000000	          0.00000000	          0.00000000	          0.00000000	         -0.00000000	          0.00000000	         -0.00000000	         -2.42825315	         38.31232287	          2.45323325	          0.17215991	          0.00000000	          0.07569007	          0.00000000	          0.00000000	          0.00000000	          0.00000000	         -2.29150622	          0.00000000	
          3.75500000	          0.00000000	          0.00000000	          0.00000000	         -0.00000000	          0.00000000	         -0.00000000	         -4.18951182	         23.67813887	          1.93740280	          0.14901371	          0.00000000	          0.06367807	          0.00000000	          0.00000000	          0.00000000	          0.00000000	         -1.59084548	          0.00000000	
          3.76000000	          0.00000000	          0.00000000	          0.00000000	         -0.00000000	          0.00000000	         -0.00000000	         -5.02396168	         12.48084488	          1.45688060	          0.12319594	          0.00000000	          0.05125077	          0.00000000	          0.00000000	          0.00000000	          0.00000000	         -1.01822607	          0.00000000	
          3.76500000	          0.00000000	          0.00000000	          0.00000000	         -0.00000000	          0.00000000	         -0.00000000	         -5.16374950	          4.31628916	          1.03369133	          0.09694979	          0.00000000	          0.03924880	          0.00000000	          0.00000000	          0.00000000	          0.00000000	         -0.57063550	          0.00000000	
          3.77000000	          0.00000000	          0.00000000	          0.00000000	         -0.00000000	          0.00000000	         -0.00000000	         -4.84500258	         -1.26084854	          0.68055576	          0.07245109	          0.00000000	          0.02844807	          0.00000000	          0.00000000	          0.00000000	          0.00000000	         -0.23847397	          0.00000000	
          3.77500000	          0.00000000	          0.00000000	          0.00000000	         -0.00000000	          0.00000000	         -0.00000000	         -4.25741523	         -4.73764104	          0.40027303	          0.05101055	          0.00000000	          0.01927187	          0.00000000	          0.00000000	          0.00000000	          0.00000000	         -0.00660481	          0.00000000	
          3.78000000	         -0.00000000	          0.00000000	          0.00000000	         -0.00000000	          0.00000000	         -0.00000000	         -3.54389677	         -6.59255059	          0.18887639	          0.03322682	          0.00000000	          0.01186318	          0.00000000	          0.00000000	          0.00000000	          0.00000000	          0.14261075	          0.00000000	
          3.78500000	         -0.00000000	         -0.00000000	          0.00000000	         -0.00000000	          0.00000000	         -0.00000000	         -2.80605183	         -7.26067711	          0.03837398	          0.01919462	          0.00000000	          0.00617389	          0.00000000	          0.00000000	          0.00000000	          0.00000000	          0.22702101	          0.00000000	
          3.79000000	         -0.00000000	         -0.00000000	          0.00000000	         -0.00000000	          0.00000000	         -0.00000000	         -2.11096139	         -7.11490194	         -0.06117522	          0.00867798	          0.00000000	          0.00203719	          0.00000000	          0.00000000	          0.00000000	          0.00000000	          0.26319706	          0.00000000	
          3.79500000	         -0.00000000	         -0.00000000	          0.00000000	         -0.00000000	          0.00000000	         -0.00000000	         -1.49826183	         -6.45871643	         -0.12017597	          0.00124754	          0.00000000	         -0.00077672	          0.00000000	          0.00000000	          0.00000000	          0.00000000	          0.26558036	          0.00000000	
          3.80000000	         -0.00000000	         -0.00000000	         -0.00000000	         -0.00000000	          0.00000000	         -0.00000000	         -0.98685508	         -5.52711100	         -0.14850754	         -0.00361612	          0.00000000	         -0.00251980	          0.00000000	          0.00000000	          0.00000000	          0.00000000	          0.24610452	          0.00000000	
          3.80500000	         -0.00000000	         -0.00000000	         -0.00000000	         -0.00000000	          0.00000000	         -0.00000000	         -0.58085153	         -4.49256284	         -0.15493088	         -0.00644910	          0.00000000	         -0.00343831	          0.00000000	          0.00000000	          0.00000000	          0.00000000	          0.21415116	          0.00000000	
          3.81000000	         -0.00000000	         -0.00000000	         -0.00000000	          0.00000000	          0.00000000	          0.00000000	         -0.27455099	         -3.47381974	         -0.14679688	         -0.00775579	          0.00000000	         -0.00375541	          0.00000000	          0.00000000	          0.00000000	          0.00000000	          0.17672331	          0.00000000	
          3.81500000	         -0.00000000	         -0.00000000	         -0.00000000	          0.00000000	          0.00000000	          0.00000000	         -0.05641272	         -2.54578239	         -0.12997085	         -0.00798036	          0.00000000	         -0.00366175	          0.00000000	          0.00000000	          0.00000000	          0.00000000	          0.13874489	          0.00000000	
